# xmcd
#
# Track frame offsets:
#	150
#	22268
#	44733
#	69835
#	92245
#	115385
#	139155
#	160598
#	184075
#	205738
#	226473
#
# Disc length: 3358 seconds
#
# Revision: 1
# Processed by: cddbd v1.5.1PL0 Copyright (c) Steve Scherf et al.
# Submitted via: CDex 1.50Beta5
#
DISCID=9a0d1c0b
DTITLE=中村雅俊 - 100年の勇気
DYEAR=1999
DGENRE=
TTITLE0=100年の勇気
TTITLE1=泣いて気がすむなら
TTITLE2=翼のある少年
TTITLE3=絆
TTITLE4=腕のなかでBirthday
TTITLE5=さかなたち海へ
TTITLE6=愛してるとONCE AGAIN
TTITLE7=あいつを殴った夕暮れが
TTITLE8=DJがいない夜
TTITLE9=ROAD RUNNER
TTITLE10=ほほえみで抱きしめたい
EXTD=
EXTT0=
EXTT1=
EXTT2=
EXTT3=
EXTT4=
EXTT5=
EXTT6=
EXTT7=
EXTT8=
EXTT9=
EXTT10=
PLAYORDER=
